<svg width="157" height="157" viewBox="0 0 157 157" fill="none" xmlns="http://www.w3.org/2000/svg">
<path d="M44.9448 39.7717C44.9448 29.4044 53.3492 21 63.7166 21H89.3144C99.6817 21 108.086 29.4044 108.086 39.7717H44.9448Z" fill="url(#paint0_linear_9165_4753)"/>
<path d="M17.6406 75.2673C17.6406 62.8426 17.6406 56.6303 20.0586 51.8847C22.1856 47.7104 25.5794 44.3165 29.7537 42.1896C34.4993 39.7716 40.7116 39.7716 53.1363 39.7716H99.895C112.32 39.7716 118.532 39.7716 123.278 42.1896C127.452 44.3165 130.846 47.7104 132.973 51.8847C135.391 56.6303 135.391 62.8426 135.391 75.2673V96.4281C135.391 108.853 135.391 115.065 132.973 119.811C130.846 123.985 127.452 127.379 123.278 129.506C118.532 131.924 112.32 131.924 99.895 131.924H53.1363C40.7116 131.924 34.4993 131.924 29.7537 129.506C25.5794 127.379 22.1856 123.985 20.0586 119.811C17.6406 115.065 17.6406 108.853 17.6406 96.4281V75.2673Z" fill="url(#paint1_linear_9165_4753)"/>
<path d="M95.5 54.5H114C117.866 54.5 121 57.634 121 61.5V73M58 54.5H39.5C35.634 54.5 32.5 57.634 32.5 61.5V73M58 116H39.5C35.634 116 32.5 112.866 32.5 109V97.5M95.5 116H114C117.866 116 121 112.866 121 109V97.5M97 84C97 95.0457 87.8218 104 76.5 104C65.1782 104 56 95.0457 56 84C56 72.9543 65.1782 64 76.5 64C87.8218 64 97 72.9543 97 84Z" stroke="white" stroke-width="4" stroke-linecap="round"/>
<defs>
<linearGradient id="paint0_linear_9165_4753" x1="49.0627" y1="22.976" x2="58.9926" y2="54.9962" gradientUnits="userSpaceOnUse">
<stop stop-color="#66D9C6"/>
<stop offset="1" stop-color="#009688"/>
</linearGradient>
<linearGradient id="paint1_linear_9165_4753" x1="17.6406" y1="39.7716" x2="107.092" y2="154.071" gradientUnits="userSpaceOnUse">
<stop stop-color="#66D9C6"/>
<stop offset="1" stop-color="#009688"/>
</linearGradient>
</defs>
</svg>
