<svg width="82" height="82" viewBox="0 0 82 82" fill="none" xmlns="http://www.w3.org/2000/svg">
<path d="M1 26.8C1 22.3196 1 20.0794 1.87195 18.3681C2.63893 16.8628 3.86278 15.6389 5.36808 14.8719C7.07937 14 9.32179 14 13.8066 14C33.5733 14 48.4267 14 68.1934 14C72.6782 14 74.9206 14 76.6319 14.8719C78.1372 15.6389 79.3611 16.8628 80.1281 18.3681C81 20.0794 81 22.3196 81 26.8L81 60.0292C81 65.9695 81 68.9397 79.955 71.2086C79.0357 73.2044 77.5689 74.827 75.7648 75.8439C73.7139 77 71.029 77 65.6592 77H16.3408C10.971 77 8.28614 77 6.23515 75.8439C4.43105 74.827 2.96427 73.2044 2.04503 71.2086C1 68.9397 1 65.9695 1 60.0292L1 26.8Z" fill="url(#paint0_linear_9806_160)"/>
<path d="M19 14C19 12.142 19 11.213 19.1231 10.4357C19.8008 6.15673 23.1567 2.80083 27.4357 2.12312C28.213 2 29.142 2 31 2H51C52.858 2 53.787 2 54.5643 2.12312C58.8433 2.80083 62.1992 6.15673 62.8769 10.4357C63 11.213 63 12.142 63 14H19Z" fill="url(#paint1_linear_9806_160)"/>
<path d="M11 61V55C11 53.8954 11.8954 53 13 53C14.1046 53 15 53.8954 15 55V61C15 62.1046 15.8954 63 17 63V67C13.6863 67 11 64.3137 11 61ZM27.5 63C28.6046 63 29.5 63.8954 29.5 65C29.5 66.1046 28.6046 67 27.5 67H17V63H27.5ZM67 63V67H56.5C55.3954 67 54.5 66.1046 54.5 65C54.5 63.8954 55.3954 63 56.5 63H67ZM73 61C73 64.3137 70.3137 67 67 67V63C68.1046 63 69 62.1046 69 61V55C69 53.8954 69.8954 53 71 53C72.1046 53 73 53.8954 73 55V61ZM11 29C11 25.6863 13.6863 23 17 23H27.5C28.6046 23 29.5 23.8954 29.5 25C29.5 26.1046 28.6046 27 27.5 27H17C15.8954 27 15 27.8954 15 29V35C15 36.1046 14.1046 37 13 37C11.8954 37 11 36.1046 11 35V29ZM73 35C73 36.1046 72.1046 37 71 37C69.8954 37 69 36.1046 69 35V29C69 27.8954 68.1046 27 67 27H56.5C55.3954 27 54.5 26.1046 54.5 25C54.5 23.8954 55.3954 23 56.5 23H67C70.3137 23 73 25.6863 73 29V35Z" fill="#99F6E4"/>
<circle cx="41.5" cy="44.5" r="16.5" fill="url(#paint2_linear_9806_160)"/>
<circle cx="41.5" cy="44.5" r="9.5" fill="url(#paint3_linear_9806_160)" stroke="#99F6E4" stroke-width="2"/>
<defs>
<linearGradient id="paint0_linear_9806_160" x1="2.79775" y1="17.8964" x2="83.2752" y2="69.8592" gradientUnits="userSpaceOnUse">
<stop stop-color="#66D9C6"/>
<stop offset="1" stop-color="#009688"/>
</linearGradient>
<linearGradient id="paint1_linear_9806_160" x1="19.764" y1="1.97191" x2="43.7084" y2="26.2014" gradientUnits="userSpaceOnUse">
<stop stop-color="#66D9C6"/>
<stop offset="1" stop-color="#009688"/>
</linearGradient>
<linearGradient id="paint2_linear_9806_160" x1="25.7416" y1="30.041" x2="63.1156" y2="49.0447" gradientUnits="userSpaceOnUse">
<stop stop-color="#009688"/>
<stop offset="1" stop-color="#66D9C6"/>
</linearGradient>
<linearGradient id="paint3_linear_9806_160" x1="31.4719" y1="35.2988" x2="55.2554" y2="47.3921" gradientUnits="userSpaceOnUse">
<stop stop-color="#66D9C6"/>
<stop offset="1" stop-color="#009688"/>
</linearGradient>
</defs>
</svg>
